<svg width="24" height="24" viewBox="0 0 24 24" fill="none" xmlns="http://www.w3.org/2000/svg">
<path d="M8.25 12.6442L16.6797 20.0624C16.7773 20.1482 16.8954 20.2072 17.0226 20.2337C17.1498 20.2601 17.2817 20.253 17.4054 20.2132C17.529 20.1733 17.6402 20.102 17.728 20.0062C17.8158 19.9105 17.8772 19.7935 17.9063 19.6669L21.4325 4.27947C21.463 4.14643 21.4566 4.00759 21.414 3.87792C21.3715 3.74824 21.2943 3.63265 21.1909 3.54359C21.0874 3.45453 20.9617 3.39539 20.8271 3.37253C20.6925 3.34967 20.5543 3.36397 20.4273 3.41388L3.12505 10.2112C2.97426 10.2704 2.8467 10.3769 2.76147 10.5147C2.67624 10.6524 2.63791 10.8141 2.65223 10.9755C2.66654 11.1369 2.73273 11.2893 2.84088 11.4099C2.94903 11.5305 3.09334 11.6129 3.2522 11.6447L8.25 12.6442Z" stroke="#FFAF3F" stroke-linecap="round" stroke-linejoin="round"/>
<path d="M8.25 12.6443L21.0105 3.42834" stroke="#FFAF3F" stroke-linecap="round" stroke-linejoin="round"/>
<path d="M12.46 16.3491L9.53033 19.2788C9.42544 19.3837 9.2918 19.4551 9.14632 19.4841C9.00083 19.513 8.85003 19.4982 8.71299 19.4414C8.57594 19.3846 8.45881 19.2885 8.3764 19.1652C8.29399 19.0418 8.25 18.8968 8.25 18.7485V12.6443" stroke="#FFAF3F" stroke-linecap="round" stroke-linejoin="round"/>
</svg>
